<svg id="Layer_1" data-name="Layer 1" xmlns="http://www.w3.org/2000/svg" viewBox="0 0 1951 1301"><defs><style>.cls-1{fill:#737373;}</style></defs><title>logo-RWB-G</title><path class="cls-1" d="M1608,1481H421l-16.82-2c-11.38-1.36-23-1.73-34.1-4.28-21.52-4.94-43-10.45-64.07-17-25.47-7.85-49.37-19.63-72.36-33a411.4,411.4,0,0,1-72.24-53c-17.4-16-34-33.07-48-52.19-11.64-15.89-22.14-32.63-32.68-49.28C68.23,1250.46,59.06,1229,51,1207.07c-12-32.74-20.29-66.38-23.06-101.25-.37-4.63-1.28-9.21-1.95-13.82q0-29,0-58c.66-4.27,1.31-8.55,2-12.82,2.69-17.1,4.45-34.42,8.29-51.26a429.83,429.83,0,0,1,35.46-98.07,472.52,472.52,0,0,1,36.82-61.2,496.78,496.78,0,0,1,53.9-63.54c4.44-4.44,9.07-8.72,13.83-12.82,6.84-5.89,13.5-12.08,20.9-17.2,18-12.42,36.34-24.29,54.5-36.44A3.58,3.58,0,0,0,253,678.2c1-16.79,1.18-33.7,3.24-50.36,1.76-14.33,5.13-28.54,8.8-42.53,5.91-22.52,15.63-43.56,27.09-63.79a269.16,269.16,0,0,1,42.42-56.44c8-8.12,16.54-15.74,25.15-23.21,16-13.88,33.74-25.18,52.51-35,18.16-9.46,37.24-16.39,56.88-22a246.11,246.11,0,0,1,57.39-9.62c22.42-1,44.84-.47,67.21,3.47A314.76,314.76,0,0,1,657,396.56c8,3.21,15.76,6.82,22.67,9.83,15.56-17.8,30.52-35.28,45.94-52.35a233.05,233.05,0,0,1,20.51-19.57c14.9-12.92,29.7-26,45.21-38.16,29.9-23.44,62.39-42.77,96.57-59.39a579.07,579.07,0,0,1,86.36-33.84c23.25-7,46.82-12.89,70.94-16,18-2.35,36.17-4.07,54.26-6.12.54-.06,1-.61,1.53-.94h67c.51.32,1,.88,1.53.94,13.56,1.38,27.19,2.2,40.66,4.19,15.79,2.33,31.65,4.83,47.1,8.77,20.78,5.3,41.61,10.92,61.65,18.46,22.21,8.36,43.83,18.46,65.21,28.83,23.83,11.56,45.89,26.15,67.49,41.52a553.83,553.83,0,0,1,65.16,54.9A497,497,0,0,1,1554,378.74c12.63,15.41,24.59,31.42,36,47.78,8.55,12.3,15.83,25.49,23.48,38.4,12.59,21.25,22.62,43.73,31.82,66.61a563.83,563.83,0,0,1,26.23,85.28c6.46,28.31,10,57,12.46,85.86.23,2.73.76,3.91,3.81,4.52,5.39,1.08,10.61,3,15.88,4.71A373.19,373.19,0,0,1,1776.38,744a364.93,364.93,0,0,1,72.08,53.29c15.11,14.5,29,30.34,42.53,46.39,17.61,20.94,31.69,44.32,44.08,68.7a393.3,393.3,0,0,1,28.59,74.2c5.57,20.29,9.84,40.95,11.39,62,.35,4.8,1.28,9.55,1.95,14.32v54c-.32.51-.88,1-.94,1.53-1.05,9.45-1.42,19-3.19,28.35-3.45,18.22-6.81,36.54-11.76,54.38-8.41,30.28-21.32,58.78-37.12,86a393,393,0,0,1-58,76,375.27,375.27,0,0,1-52.49,44.81,397.55,397.55,0,0,1-79,43.88c-21.57,8.87-43.68,16.24-66.62,20.38-18.49,3.33-37.26,5.14-55.9,7.66A38.22,38.22,0,0,0,1608,1481ZM734.5,443.35c3.07,2.44,5,3.63,6.55,5.26,12.42,13.3,25.42,26.14,37,40.17,20.1,24.43,34.53,52.25,45,82.06a281,281,0,0,1,16.14,98c-.18,11.84-5.38,20.7-14.59,26.75-10.85,7.12-22.72,7.33-34.42,1.06-11.2-6-15.92-16-17.07-28-1.19-12.44-1.64-25-3.12-37.38C767.39,610,760.3,590,751.27,570.75c-8.23-17.55-18.21-34.14-31.51-48.28-11.53-12.26-23.38-24.44-36.39-35-16.09-13.11-34.54-22.71-53.82-30.63a227.87,227.87,0,0,0-121.32-13A229,229,0,0,0,337.35,579.18a224.51,224.51,0,0,0-18.29,87.76c-.06,6.93.86,13.87.86,20.8,0,6.77-.67,13.53-.89,20.31-.15,4.48,0,9,0,12.5-15.46,8.24-30.47,15.84-45.1,24.12-20,11.34-38.2,25.4-55,41.09-15.82,14.81-30.79,30.46-44.1,47.7A427.94,427.94,0,0,0,136,893.35c-16.13,30.2-28.48,61.93-35.66,95.4-3.83,17.87-6.92,36.1-8,54.3-1.28,22.26-1.56,44.75,2.71,66.87,3.33,17.26,6.43,34.61,11,51.57,7.8,29.17,20.43,56.39,35.94,82.28a345.22,345.22,0,0,0,44.9,59.5,367.28,367.28,0,0,0,49.65,43.87,345,345,0,0,0,135.19,60.31c20.14,4.18,40.47,7.37,60.94,7.39q415.28.37,830.56.17c103.5,0,207,.14,310.49-.13,18.14,0,36.3-1.42,54.39-3,18.56-1.6,36.62-6.13,54.4-11.68a333,333,0,0,0,62.73-27.2c24.8-13.8,47.11-30.94,67.53-50.47,9-8.64,17-18.41,25.13-28,16.79-19.78,30.19-41.72,41.44-65.09a333.63,333.63,0,0,0,20.15-53.43,293.11,293.11,0,0,0,11.32-67.05c1-21,.64-42-2.6-62.91a377.28,377.28,0,0,0-12-53.83A333.49,333.49,0,0,0,1867,925.69,318.3,318.3,0,0,0,1825,867.74c-20.89-22.8-43.94-43.23-70.43-59.46a340.47,340.47,0,0,0-62.41-30.35,278.16,278.16,0,0,0-76.47-15.86c-15.35-1-30.73-1.89-46.11-1.93-13.7,0-27.42,1-41.1,1.91-11.15.74-22.47,1-33.35,3.25-15.78,3.26-33.37-7.17-37.95-23.42-4.78-17,5.85-37.77,23.58-40.9,8.36-1.48,16.73-3.22,25.16-3.86,18.44-1.38,36.92-2.55,55.41-3,14.59-.35,29.2.47,43.8.91,3.5.1,7,.74,10.77,1.17,0-3.22.28-5.58,0-7.85-1.54-10.84-2.9-21.72-5-32.46-3-15.5-6.07-31-10-46.3a454.67,454.67,0,0,0-29-79.75c-13.19-28-28.12-55-46.65-79.86-12-16-24.25-31.92-37.78-46.59-13.92-15.09-29.11-29.1-44.56-42.67-12.14-10.67-25.23-20.32-38.4-29.74a443,443,0,0,0-84.13-46.9c-23.09-9.86-46.65-18.49-71.17-24-17.8-4-35.82-7.13-53.84-10-12.14-1.94-24.43-3.6-36.69-3.88-18.58-.42-37.22.05-55.79.94a337.14,337.14,0,0,0-40.66,4.11c-16.67,2.85-33.17,6.83-49.62,10.78-30.51,7.34-59.68,18.5-88.05,31.78a516,516,0,0,0-77.17,44.45c-20.74,14.51-40.86,29.91-58.75,47.83C770.33,404.43,753,423.74,734.5,443.35Z" transform="translate(-26 -180)"/><path class="cls-1" d="M977,1318H966c-5-2.31-9.87-4.76-14.9-6.91-19.46-8.32-39-16.51-58.44-24.82-14.83-6.34-29.59-12.84-44.42-19.17q-29.42-12.57-58.89-25c-15.14-6.41-30.43-12.49-45.41-19.24-9.18-4.14-20.35-6-23.94-17.84V938c3.4-5.64,7.29-11.41,14.42-11.49,5.13-.06,10.55,1.55,15.39,3.53,20.19,8.27,40.21,17,60.27,25.52,16.63,7.1,33.22,14.27,49.85,21.37q30.1,12.86,60.22,25.66c16.94,7.19,33.95,14.19,50.83,21.5,11,4.78,18.21,6.86,18.14,25.93q-.44,123.94,0,247.88C989.17,1307.65,985.63,1314.07,977,1318Z" transform="translate(-26 -180)"/><path class="cls-1" d="M1006,754c7.59,3.64,15.11,7.45,22.8,10.89,12.78,5.73,25.67,11.22,38.52,16.82q36.07,15.73,72.13,31.48c15.67,6.88,31.26,14,46.93,20.87q32,14.1,64,28.08c8.64,3.79,12.19,9.57,12.46,17.81.22,6.61-3.55,13.69-12.71,17.24-11.09,4.29-21.71,9.77-32.59,14.6-23.68,10.53-47.41,20.94-71.1,31.46-13.41,6-26.75,12.07-40.16,18.05q-36,16-71.94,32c-7.15,3.19-14.58,5.92-21.3,9.84-9.29,5.41-17.83,4.1-27-.05-24.51-11.05-49.24-21.62-73.83-32.51-18.94-8.38-37.74-17-56.69-25.39-23.26-10.24-46.64-20.2-69.92-30.4C772.26,909,759.05,902.94,745.84,897c-7-3.17-9.75-9.34-9.67-16.36a18.14,18.14,0,0,1,11.52-16.73c10.16-4,20-8.72,30-13.17q37.08-16.53,74.13-33.1c17.11-7.67,34.15-15.52,51.28-23.15,23.08-10.28,46.23-20.37,69.31-30.65,6.94-3.09,13.73-6.53,20.6-9.81ZM778,880.65a21.59,21.59,0,0,0,2.28,1.41c14.58,6.51,29.14,13.06,43.76,19.49Q872.4,922.8,920.77,944c23.72,10.44,47.36,21.06,71.16,31.34,3.3,1.42,6.46,4.41,10.82,2.41,16.45-7.54,33-14.91,49.48-22.37,14.12-6.38,28.2-12.86,42.35-19.16q34.83-15.53,69.74-30.89c11.77-5.21,23.58-10.35,35.33-15.6,7.1-3.17,14.12-6.51,21.6-10-7.88-3.43-15.18-6.56-22.44-9.79-18.32-8.15-36.58-16.44-54.94-24.51-26.25-11.55-52.58-22.92-78.83-34.44-21.2-9.31-42.33-18.76-63.53-28a5.53,5.53,0,0,0-4,0q-32.24,14.15-64.39,28.52c-13.55,6-27,12.27-40.58,18.32q-35.05,15.64-70.16,31.16Z" transform="translate(-26 -180)"/><path class="cls-1" d="M1027,1318c-5.54-2.49-10.86-5.2-12.39-11.88a15.26,15.26,0,0,1-.58-2.84c-.37-11.93-1-23.86-1-35.8q-.13-111.47-.1-222.94c0-8.7,4.09-14.38,11.66-17.68,31.07-13.51,62.22-26.84,93.31-40.31,24.22-10.5,48.38-21.14,72.59-31.67q32.71-14.23,65.47-28.34c10.55-4.53,21.14.19,25.06,11a7.84,7.84,0,0,0,1,1.5v266c-2.61,4.89-5.66,8.89-11.28,11.23-18.94,7.91-37.62,16.46-56.43,24.7q-22.83,10-45.74,19.84-32.52,14.05-65.06,28.06c-14.21,6.11-28.48,12.09-42.66,18.27-8,3.49-15.89,7.26-23.83,10.9Zm228-361c-14.67,6.51-28.62,12.8-42.66,18.89-18.52,8-37.14,15.87-55.67,23.88-16.15,7-32.21,14.18-48.37,21.15q-31.85,13.74-63.8,27.24c-3.39,1.44-4.64,3.43-4.61,7.38q.74,112.85,1.13,225.71c0,1.22.23,2.44.35,3.63a6.28,6.28,0,0,0,1.9,0q23.75-10.35,47.47-20.76c16-7,31.93-14,47.93-20.93,21.52-9.31,43.09-18.53,64.62-27.82,15.56-6.72,31-13.78,46.71-20,4.14-1.65,5.08-3.48,5.07-7.46q-.14-112.7-.07-225.4Z" transform="translate(-26 -180)"/></svg>