<?xml version="1.0" encoding="utf-8"?>
<!-- Generator: Adobe Illustrator 21.0.0, SVG Export Plug-In . SVG Version: 6.00 Build 0)  -->
<svg version="1.1" id="Capa_1" xmlns="http://www.w3.org/2000/svg" xmlns:xlink="http://www.w3.org/1999/xlink" x="0px" y="0px"
	 viewBox="0 0 512 512" style="enable-background:new 0 0 512 512;" xml:space="preserve">
<style type="text/css">
	.st0{fill:#F9F9F9;}
</style>
<g>
	<path class="st0" d="M279.5,33.6c-9.6-5.4-21-5.3-30.4,0.4c-0.5,0.3-0.9,0.6-1.3,0.9L114.5,147.7H9.8c-5.4,0-9.8,4.4-9.8,9.8v187
		c0,2.6,1,5.1,2.9,7c1.9,1.8,4.3,2.9,7,2.9l104.4,0l133.3,122.4c0.5,0.5,1,0.8,1.6,1.2c4.8,2.9,10.2,4.4,15.6,4.4
		c5.1,0,10.2-1.3,14.8-4c9.8-5.6,15.7-15.7,15.7-27.1V60.7C295.2,49.3,289.4,39.1,279.5,33.6z M275.6,451.3c0,4.2-2.1,8-5.7,10
		c-1.5,0.9-5.4,2.5-9.8,0.3L127.9,340.2v-44.8c0-5.4-4.4-9.8-9.8-9.8c-5.4,0-9.8,4.4-9.8,9.8v39.3l-88.6,0V167.4h88.6v39.4
		c0,5.4,4.4,9.8,9.8,9.8c5.4,0,9.8-4.4,9.8-9.8v-44.6L259.9,50.6c4.5-2.4,8.5-0.7,10,0.2c3.6,2,5.7,5.7,5.7,10V451.3z"/>
	<path class="st0" d="M381.8,69.5c-5.1-1.7-10.7,1-12.5,6.2c-1.7,5.1,1,10.7,6.2,12.5c69.9,23.7,116.8,89.2,116.8,162.9
		c0,73.6-46.9,139.1-116.6,162.9c-5.1,1.8-7.9,7.3-6.1,12.5c1.4,4.1,5.2,6.7,9.3,6.7c1.1,0,2.1-0.2,3.2-0.5
		C459.8,406.1,512,333.2,512,251.1C512,168.9,459.7,96,381.8,69.5z"/>
	<path class="st0" d="M423.4,251.1c0-58.8-39.5-111.2-95.9-127.6c-5.2-1.5-10.7,1.5-12.2,6.7c-1.5,5.2,1.5,10.7,6.7,12.2
		c48.1,13.9,81.7,58.6,81.7,108.6s-33.6,94.7-81.7,108.6c-5.2,1.5-8.2,7-6.7,12.2c1.2,4.3,5.2,7.1,9.5,7.1c0.9,0,1.8-0.1,2.7-0.4
		C384,362.3,423.4,309.9,423.4,251.1z"/>
</g>
</svg>
