<?xml version="1.0" encoding="utf-8"?>
<!-- Generator: Adobe Illustrator 21.0.0, SVG Export Plug-In . SVG Version: 6.00 Build 0)  -->
<svg version="1.1" id="Capa_1" xmlns="http://www.w3.org/2000/svg" xmlns:xlink="http://www.w3.org/1999/xlink" x="0px" y="0px"
	 viewBox="0 0 512 512" style="enable-background:new 0 0 512 512;" xml:space="preserve">
<style type="text/css">
	.st0{fill:#FFFFFF;}
</style>
<g>
	<g>
		<circle class="st0" cx="238.9" cy="217.6" r="8.5"/>
		<circle class="st0" cx="238.9" cy="243.2" r="8.5"/>
		<circle class="st0" cx="238.9" cy="268.8" r="8.5"/>
		<circle class="st0" cx="238.9" cy="140.8" r="8.5"/>
		<circle class="st0" cx="213.3" cy="157.9" r="8.5"/>
		<circle class="st0" cx="213.3" cy="192" r="8.5"/>
		<circle class="st0" cx="477.9" cy="157.9" r="8.5"/>
		<circle class="st0" cx="477.9" cy="217.6" r="8.5"/>
		<circle class="st0" cx="162.1" cy="337.1" r="8.5"/>
		<circle class="st0" cx="136.5" cy="337.1" r="8.5"/>
		<circle class="st0" cx="110.9" cy="337.1" r="8.5"/>
		<circle class="st0" cx="34.1" cy="234.7" r="8.5"/>
		<circle class="st0" cx="34.1" cy="260.3" r="8.5"/>
		<circle class="st0" cx="34.1" cy="285.9" r="8.5"/>
		<circle class="st0" cx="238.9" cy="166.4" r="8.5"/>
		<circle class="st0" cx="238.9" cy="192" r="8.5"/>
		<path class="st0" d="M486.4,55.5v-8.5c0-4.7-3.8-8.5-8.5-8.5c-4.7,0-8.5,3.8-8.5,8.5v8.5h-8.5V29.9h-34.1h-17.1h-17.1h-17.1h-17.1
			h-17.1h-17.1h-17.1h-34.1v25.6h-8.5v-8.5c0-4.7-3.8-8.5-8.5-8.5c-4.7,0-8.5,3.8-8.5,8.5v8.5h-8.5v-8.5c0-4.7-3.8-8.5-8.5-8.5
			s-8.5,3.8-8.5,8.5v8.5h-34.1h-51.2h-17.1H68.3H0v426.7h512V55.5H486.4z M426.7,46.9h17.1v8.5h-17.1V46.9z M392.5,46.9h17.1v8.5
			h-17.1V46.9z M358.4,46.9h17.1v8.5h-17.1V46.9z M324.3,46.9h17.1v8.5h-17.1V46.9z M290.1,46.9h17.1v8.5h-17.1V46.9z M170.7,72.5
			v179.2h-17.1V72.5H170.7z M102.4,72.5v128H85.3v-128H102.4z M494.9,465.1H17.1v-8.5h17.1c4.7,0,8.5-3.8,8.5-8.5
			c0-4.7-3.8-8.5-8.5-8.5H17.1v-8.5h17.1c4.7,0,8.5-3.8,8.5-8.5s-3.8-8.5-8.5-8.5H17.1v-8.5h17.1c4.7,0,8.5-3.8,8.5-8.5
			s-3.8-8.5-8.5-8.5H17.1v-8.5h17.1c4.7,0,8.5-3.8,8.5-8.5c0-4.7-3.8-8.5-8.5-8.5H17.1v-8.5h17.1c4.7,0,8.5-3.8,8.5-8.5
			c0-4.7-3.8-8.5-8.5-8.5H17.1V166.4h17.1c4.7,0,8.5-3.8,8.5-8.5c0-4.7-3.8-8.5-8.5-8.5H17.1v-8.5h17.1c4.7,0,8.5-3.8,8.5-8.5
			c0-4.7-3.8-8.5-8.5-8.5H17.1v-8.5h17.1c4.7,0,8.5-3.8,8.5-8.5s-3.8-8.5-8.5-8.5H17.1V72.5h51.2v145.1h17.1v8.5
			c0,4.7,3.8,8.5,8.5,8.5c4.7,0,8.5-3.8,8.5-8.5v-8.5h17.1V72.5h17.1v196.3h17.1v8.5c0,4.7,3.8,8.5,8.5,8.5s8.5-3.8,8.5-8.5v-8.5
			h17.1V72.5h85.3h34.1h17.1h17.1h17.1h17.1h17.1h17.1h17.1h34.1h34.1V465.1z"/>
		<path class="st0" d="M315.7,234.7h17.1v17.1h17.1v-17.1h8.5v17.1h17.1v-17.1h8.5v17.1h17.1v-17.1h17.1v-17.1h17.1v-17.1h-17.1V192
			h17.1v-17.1h-17.1v-8.5h17.1v-17.1h-17.1v-17.1h-17.1v-17.1H384v17.1h-8.5v-17.1h-17.1v17.1h-8.5v-17.1h-17.1v17.1h-17.1v17.1
			h-17.1v17.1h17.1v8.5h-17.1V192h17.1v8.5h-17.1v17.1h17.1V234.7z M332.8,149.3h68.3v68.3h-68.3V149.3z"/>
		<path class="st0" d="M296.2,277.3h141.5c12.7,0,23.1-10.4,23.1-23.1V112.7c0-12.7-10.4-23.1-23.1-23.1H296.2
			c-12.7,0-23.1,10.4-23.1,23.1v141.5C273.1,267,283.4,277.3,296.2,277.3z M290.1,112.7c0-3.3,2.7-6.1,6.1-6.1h141.5
			c3.3,0,6.1,2.7,6.1,6.1v141.5c0,3.3-2.7,6.1-6.1,6.1H296.2c-3.3,0-6.1-2.7-6.1-6.1V112.7z"/>
		<path class="st0" d="M469.3,328.5c4.7,0,8.5-3.8,8.5-8.5c0-4.7-3.8-8.5-8.5-8.5h-8.5v-17.1H221.9v17.1h-8.5
			c-4.7,0-8.5,3.8-8.5,8.5c0,4.7,3.8,8.5,8.5,8.5h8.5v17.1h-8.5c-4.7,0-8.5,3.8-8.5,8.5c0,4.7,3.8,8.5,8.5,8.5h8.5v17.1h-8.5
			c-4.7,0-8.5,3.8-8.5,8.5c0,4.7,3.8,8.5,8.5,8.5h8.5v17.1h-8.5c-4.7,0-8.5,3.8-8.5,8.5s3.8,8.5,8.5,8.5h8.5V448h238.9v-17.1h8.5
			c4.7,0,8.5-3.8,8.5-8.5s-3.8-8.5-8.5-8.5h-8.5v-17.1h8.5c4.7,0,8.5-3.8,8.5-8.5c0-4.7-3.8-8.5-8.5-8.5h-8.5v-17.1h8.5
			c4.7,0,8.5-3.8,8.5-8.5c0-4.7-3.8-8.5-8.5-8.5h-8.5v-17.1H469.3z M443.7,328.5h-8.5v-17.1h8.5V328.5z M443.7,362.7h-8.5v-17.1h8.5
			V362.7z M443.7,396.8h-8.5v-17.1h8.5V396.8z M264.5,396.8v-17.1h153.6v17.1H264.5z M418.1,413.9v17.1H264.5v-17.1H418.1z
			 M238.9,379.7h8.5v17.1h-8.5V379.7z M238.9,345.6h8.5v17.1h-8.5V345.6z M418.1,345.6v17.1H264.5v-17.1H418.1z M264.5,328.5v-17.1
			h153.6v17.1H264.5z M238.9,311.5h8.5v17.1h-8.5V311.5z M238.9,413.9h8.5v17.1h-8.5V413.9z M443.7,430.9h-8.5v-17.1h8.5V430.9z"/>
		<path class="st0" d="M179.2,396.8c4.7,0,8.5-3.8,8.5-8.5c0-4.7-3.8-8.5-8.5-8.5h-8.5v-17.1h-68.3v17.1h-8.5
			c-4.7,0-8.5,3.8-8.5,8.5c0,4.7,3.8,8.5,8.5,8.5h8.5v8.5h-8.5c-4.7,0-8.5,3.8-8.5,8.5c0,4.7,3.8,8.5,8.5,8.5h8.5v17.1h68.3v-17.1
			h8.5c4.7,0,8.5-3.8,8.5-8.5c0-4.7-3.8-8.5-8.5-8.5h-8.5v-8.5H179.2z M153.6,422.4h-34.1v-42.7h34.1V422.4z"/>
		<path class="st0" d="M119.5,251.7H59.7v59.7h59.7V251.7z M102.4,294.4H76.8v-25.6h25.6V294.4z"/>
	</g>
</g>
</svg>
